REM DIRINDEX 1\5,1\2\6,1\2\7,1\3\8,1\3\9,1\4\10,1\4\11,1\4\12
REM DIRNAME cjc026,folder01,folder02,folder03,folder04,folder05,folder06,folder07,folder08,folder09,folder10,folder11
TITLE ""
FILE "JE_DB3000_5th_6C_50.mp3" MP3
  TRACK 01 AUDIO
    TITLE "0:"
    INDEX 01 00:00:00
  TRACK 02 AUDIO
    TITLE "6:cjc026_03409"
    INDEX 01 00:00:08
  TRACK 03 AUDIO
    TITLE "0:"
    INDEX 01 00:01:30
  TRACK 04 AUDIO
    TITLE "7:cjc026_03410"
    INDEX 01 00:01:65
  TRACK 05 AUDIO
    TITLE "0:"
    INDEX 01 00:03:09
  TRACK 06 AUDIO
    TITLE "6:cjc026_03411"
    INDEX 01 00:03:45
  TRACK 07 AUDIO
    TITLE "0:"
    INDEX 01 00:05:05
  TRACK 08 AUDIO
    TITLE "7:cjc026_03412"
    INDEX 01 00:05:43
  TRACK 09 AUDIO
    TITLE "0:"
    INDEX 01 00:06:63
  TRACK 10 AUDIO
    TITLE "6:cjc026_03413"
    INDEX 01 00:07:23
  TRACK 11 AUDIO
    TITLE "0:"
    INDEX 01 00:08:61
  TRACK 12 AUDIO
    TITLE "7:cjc026_03414"
    INDEX 01 00:09:21
  TRACK 13 AUDIO
    TITLE "0:"
    INDEX 01 00:10:60
  TRACK 14 AUDIO
    TITLE "6:cjc026_03415"
    INDEX 01 00:11:20
  TRACK 15 AUDIO
    TITLE "0:"
    INDEX 01 00:12:74
  TRACK 16 AUDIO
    TITLE "7:cjc026_03416"
    INDEX 01 00:13:34
  TRACK 17 AUDIO
    TITLE "0:"
    INDEX 01 00:15:14
  TRACK 18 AUDIO
    TITLE "6:cjc026_03417"
    INDEX 01 00:15:49
  TRACK 19 AUDIO
    TITLE "0:"
    INDEX 01 00:17:58
  TRACK 20 AUDIO
    TITLE "7:cjc026_03418"
    INDEX 01 00:18:18
  TRACK 21 AUDIO
    TITLE "0:"
    INDEX 01 00:19:51
  TRACK 22 AUDIO
    TITLE "6:cjc026_03419"
    INDEX 01 00:20:12
  TRACK 23 AUDIO
    TITLE "0:"
    INDEX 01 00:21:55
  TRACK 24 AUDIO
    TITLE "7:cjc026_03420"
    INDEX 01 00:22:15
  TRACK 25 AUDIO
    TITLE "0:"
    INDEX 01 00:23:38
  TRACK 26 AUDIO
    TITLE "6:cjc026_03421"
    INDEX 01 00:23:73
  TRACK 27 AUDIO
    TITLE "0:"
    INDEX 01 00:26:04
  TRACK 28 AUDIO
    TITLE "7:cjc026_03422"
    INDEX 01 00:26:42
  TRACK 29 AUDIO
    TITLE "0:"
    INDEX 01 00:28:00
  TRACK 30 AUDIO
    TITLE "6:cjc026_03423"
    INDEX 01 00:28:38
  TRACK 31 AUDIO
    TITLE "0:"
    INDEX 01 00:30:39
  TRACK 32 AUDIO
    TITLE "7:cjc026_03424"
    INDEX 01 00:30:74
  TRACK 33 AUDIO
    TITLE "0:"
    INDEX 01 00:32:51
  TRACK 34 AUDIO
    TITLE "6:cjc026_03425"
    INDEX 01 00:33:11
  TRACK 35 AUDIO
    TITLE "0:"
    INDEX 01 00:36:18
  TRACK 36 AUDIO
    TITLE "7:cjc026_03426"
    INDEX 01 00:36:54
  TRACK 37 AUDIO
    TITLE "0:"
    INDEX 01 00:38:39
  TRACK 38 AUDIO
    TITLE "6:cjc026_03427"
    INDEX 01 00:38:74
  TRACK 39 AUDIO
    TITLE "0:"
    INDEX 01 00:42:03
  TRACK 40 AUDIO
    TITLE "7:cjc026_03428"
    INDEX 01 00:42:38
  TRACK 41 AUDIO
    TITLE "0:"
    INDEX 01 00:44:02
  TRACK 42 AUDIO
    TITLE "6:cjc026_03429"
    INDEX 01 00:44:37
  TRACK 43 AUDIO
    TITLE "0:"
    INDEX 01 00:46:11
  TRACK 44 AUDIO
    TITLE "7:cjc026_03430"
    INDEX 01 00:46:46
  TRACK 45 AUDIO
    TITLE "0:"
    INDEX 01 00:48:18
  TRACK 46 AUDIO
    TITLE "6:cjc026_03431"
    INDEX 01 00:48:55
  TRACK 47 AUDIO
    TITLE "0:"
    INDEX 01 00:49:67
  TRACK 48 AUDIO
    TITLE "7:cjc026_03432"
    INDEX 01 00:50:27
  TRACK 49 AUDIO
    TITLE "0:"
    INDEX 01 00:51:60
  TRACK 50 AUDIO
    TITLE "6:cjc026_03433"
    INDEX 01 00:52:20
  TRACK 51 AUDIO
    TITLE "0:"
    INDEX 01 00:54:00
  TRACK 52 AUDIO
    TITLE "7:cjc026_03434"
    INDEX 01 00:54:35
  TRACK 53 AUDIO
    TITLE "0:"
    INDEX 01 00:56:03
  TRACK 54 AUDIO
    TITLE "6:cjc026_03435"
    INDEX 01 00:56:39
  TRACK 55 AUDIO
    TITLE "0:"
    INDEX 01 00:59:35
  TRACK 56 AUDIO
    TITLE "7:cjc026_03436"
    INDEX 01 00:59:67
  TRACK 57 AUDIO
    TITLE "0:"
    INDEX 01 01:02:29
  TRACK 58 AUDIO
    TITLE "6:cjc026_03437"
    INDEX 01 01:02:64
  TRACK 59 AUDIO
    TITLE "0:"
    INDEX 01 01:05:03
  TRACK 60 AUDIO
    TITLE "7:cjc026_03438"
    INDEX 01 01:05:39
  TRACK 61 AUDIO
    TITLE "0:"
    INDEX 01 01:07:69
  TRACK 62 AUDIO
    TITLE "6:cjc026_03439"
    INDEX 01 01:08:30
  TRACK 63 AUDIO
    TITLE "0:"
    INDEX 01 01:10:63
  TRACK 64 AUDIO
    TITLE "7:cjc026_03440"
    INDEX 01 01:11:21
  TRACK 65 AUDIO
    TITLE "0:"
    INDEX 01 01:13:57
